<svg xmlns="http://www.w3.org/2000/svg" width="138.945" height="23.22" viewBox="0 0 138.945 23.22">
  <defs>
    <style>
      .a {
        fill: #fff;
      }
    </style>
  </defs>
  <g>
    <path class="a" d="M8.976.372a.719.719,0,0,1,.8.792l.312,7.488H8.04L7.776,2.076H7.584L6.528,6.72a.776.776,0,0,1-.864.7H4.4a.8.8,0,0,1-.876-.7L2.472,2.076H2.28L2.052,8.652H0L.3,1.164A.725.725,0,0,1,1.1.372H3.12a.782.782,0,0,1,.852.708l.816,3.684q.06.288.1.594t.078.618H5.1q.048-.312.084-.618t.1-.606L6.06,1.08A.8.8,0,0,1,6.936.372Z"/>
    <path class="a" d="M16.212,4.992,16.2,6.1H13.644a.588.588,0,0,0-.4.138.462.462,0,0,0-.126.342V6.8a.437.437,0,0,0,.15.354.686.686,0,0,0,.45.126,1.742,1.742,0,0,0,.636-.132,3.149,3.149,0,0,0,.66-.36,3.409,3.409,0,0,0,.564-.492v.768a4.243,4.243,0,0,1-.294.48,3.662,3.662,0,0,1-.51.582,2.531,2.531,0,0,1-1.788.678,2.541,2.541,0,0,1-1-.192,1.68,1.68,0,0,1-.726-.564,1.552,1.552,0,0,1-.27-.936v-.6a1.348,1.348,0,0,1,.51-1.122,2.181,2.181,0,0,1,1.386-.4ZM14.58,2.52a3.785,3.785,0,0,1,1.362.216,1.614,1.614,0,0,1,.846.72,2.819,2.819,0,0,1,.288,1.392v3.8h-1.74l-.3-1.284-.144-.216V4.836a.737.737,0,0,0-.186-.534.932.932,0,0,0-.63-.162q-.468,0-1.152.018T11.5,4.224L11.3,2.82q.444-.084,1.038-.15t1.194-.108Q14.136,2.52,14.58,2.52Z"/>
    <path class="a" d="M19.944,2.688l.264,1.2.216.156V8.652H18.24V2.688Zm2.9-.168-.192,2H22.08a4.848,4.848,0,0,0-.792.072q-.432.072-1.092.24l-.132-1.188a4.491,4.491,0,0,1,1.23-.846,2.974,2.974,0,0,1,1.218-.282Z"/>
    <path class="a" d="M29.9,2.688l-1.86,5.448a.7.7,0,0,1-.7.516H25.476a.694.694,0,0,1-.426-.138.709.709,0,0,1-.258-.378l-1.86-5.448h2.3l.888,3.492c.048.176.087.358.12.546s.064.374.1.558H26.5c.032-.184.067-.37.108-.558s.076-.37.108-.546L27.6,2.688Z"/>
    <path class="a" d="M33.42,2.52a3.821,3.821,0,0,1,2.292.528,1.849,1.849,0,0,1,.684,1.56A1.449,1.449,0,0,1,35.94,5.82a2.676,2.676,0,0,1-1.656.384H31.02V5.112h2.652a.764.764,0,0,0,.522-.12.629.629,0,0,0,.114-.432.549.549,0,0,0-.192-.468,1.185,1.185,0,0,0-.624-.12,1.416,1.416,0,0,0-.642.1.615.615,0,0,0-.306.432,4.168,4.168,0,0,0-.084.972,3.735,3.735,0,0,0,.1,1,.771.771,0,0,0,.372.492A1.644,1.644,0,0,0,33.7,7.1q.384,0,1.014-.03t1.326-.1l.2,1.32a3.839,3.839,0,0,1-.846.3,7.3,7.3,0,0,1-.954.156q-.492.048-.984.048a4.593,4.593,0,0,1-1.92-.336A2.06,2.06,0,0,1,30.5,7.434,4.145,4.145,0,0,1,30.18,5.7,4.5,4.5,0,0,1,30.5,3.828a1.956,1.956,0,0,1,1.038-1A4.831,4.831,0,0,1,33.42,2.52Z"/>
    <path class="a" d="M39.528.252V6.6a.446.446,0,0,0,.162.384.789.789,0,0,0,.474.12h.444l.24,1.428a1.426,1.426,0,0,1-.456.156,6.092,6.092,0,0,1-.612.09q-.312.03-.528.03a2.071,2.071,0,0,1-1.392-.432,1.51,1.51,0,0,1-.5-1.212V.252Z"/>
    <path class="a" d="M44.472,2.52a4.822,4.822,0,0,1,1.884.306,1.912,1.912,0,0,1,1.02,1,4.568,4.568,0,0,1,.312,1.854,4.444,4.444,0,0,1-.312,1.83,1.918,1.918,0,0,1-1.02.984,5.953,5.953,0,0,1-3.768,0,1.918,1.918,0,0,1-1.02-.984,4.444,4.444,0,0,1-.312-1.83,4.568,4.568,0,0,1,.312-1.854,1.912,1.912,0,0,1,1.02-1A4.822,4.822,0,0,1,44.472,2.52Zm0,1.524a1.027,1.027,0,0,0-.57.132.763.763,0,0,0-.282.48,4.649,4.649,0,0,0-.084,1.02,4.576,4.576,0,0,0,.084,1.008.736.736,0,0,0,.282.474,1.066,1.066,0,0,0,.57.126,1.1,1.1,0,0,0,.576-.126.705.705,0,0,0,.282-.474,4.918,4.918,0,0,0,.078-1.008,5,5,0,0,0-.078-1.02.73.73,0,0,0-.282-.48A1.058,1.058,0,0,0,44.472,4.044Z"/>
    <path class="a" d="M50.832,2.688v3.78a.483.483,0,0,0,.119.4.635.635,0,0,0,.432.12,2.26,2.26,0,0,0,.6-.084,4.775,4.775,0,0,0,.773-.312L52.9,7.7a4.838,4.838,0,0,1-1.236.84,3.061,3.061,0,0,1-1.272.276q-1.74,0-1.74-1.668V2.688Zm3.889,0V8.652H53l-.264-1.2-.217-.144V2.688Z"/>
    <path class="a" d="M58.356,2.52q.468,0,1,.036t1.05.084a7.063,7.063,0,0,1,.888.132l-.144,1.3q-.588,0-1.182-.006t-1.146-.006q-.432,0-.648.012a.62.62,0,0,0-.294.066.225.225,0,0,0-.078.2.233.233,0,0,0,.156.24c.1.04.3.1.576.18L60,5.112a2.4,2.4,0,0,1,1.152.594,1.637,1.637,0,0,1,.372,1.17,2.039,2.039,0,0,1-.282,1.158,1.522,1.522,0,0,1-.906.582,6.405,6.405,0,0,1-1.62.168q-.408,0-1.2-.036a14.606,14.606,0,0,1-1.728-.192l.132-1.308q.18,0,.522.006t.762.006h.828q.588,0,.888-.018a.855.855,0,0,0,.4-.09.267.267,0,0,0-.078-.462q-.18-.066-.636-.186l-1.4-.372a2.619,2.619,0,0,1-.942-.432,1.334,1.334,0,0,1-.45-.624,2.616,2.616,0,0,1-.12-.828,1.708,1.708,0,0,1,.252-.966,1.534,1.534,0,0,1,.834-.57A5.2,5.2,0,0,1,58.356,2.52Z"/>
    <path class="a" d="M66.731,2.688l.241,1.2.216.156V8.652H65.016V2.688Zm2.376-.168a1.68,1.68,0,0,1,1.237.42,1.731,1.731,0,0,1,.431,1.248V8.652h-2.1V4.872a.507.507,0,0,0-.126-.39.593.593,0,0,0-.4-.114,1.673,1.673,0,0,0-.305.03,1.835,1.835,0,0,0-.366.114,5.662,5.662,0,0,0-.517.252l-.12-1.116A4.606,4.606,0,0,1,67.913,2.8,2.475,2.475,0,0,1,69.107,2.52Zm3.624,0a1.722,1.722,0,0,1,1.26.426,1.669,1.669,0,0,1,.432,1.242V8.652H72.251V4.872a.567.567,0,0,0-.107-.39.543.543,0,0,0-.4-.114,1.638,1.638,0,0,0-.311.03,1.776,1.776,0,0,0-.355.114,5.322,5.322,0,0,0-.5.252l-.12-1.116a4.546,4.546,0,0,1,1.08-.846A2.484,2.484,0,0,1,72.731,2.52Z"/>
    <path class="a" d="M78.623,2.52a3.821,3.821,0,0,1,2.292.528,1.849,1.849,0,0,1,.684,1.56,1.452,1.452,0,0,1-.456,1.212,2.676,2.676,0,0,1-1.656.384H76.223V5.112h2.652a.766.766,0,0,0,.522-.12.629.629,0,0,0,.114-.432.549.549,0,0,0-.192-.468,1.185,1.185,0,0,0-.624-.12,1.416,1.416,0,0,0-.642.1.615.615,0,0,0-.306.432,4.168,4.168,0,0,0-.084.972,3.735,3.735,0,0,0,.1,1,.771.771,0,0,0,.372.492A1.644,1.644,0,0,0,78.9,7.1q.384,0,1.014-.03t1.326-.1l.2,1.32a3.839,3.839,0,0,1-.846.3,7.3,7.3,0,0,1-.954.156c-.329.032-.656.048-.984.048a4.593,4.593,0,0,1-1.92-.336A2.06,2.06,0,0,1,75.7,7.434,4.145,4.145,0,0,1,75.383,5.7a4.5,4.5,0,0,1,.324-1.872,1.956,1.956,0,0,1,1.038-1A4.831,4.831,0,0,1,78.623,2.52Z"/>
    <path class="a" d="M84.251,2.688l.264,1.2.215.156V8.652H82.547V2.688Zm2.9-.168-.191,2h-.576A4.838,4.838,0,0,0,85.6,4.6c-.288.048-.653.128-1.092.24L84.37,3.648A4.51,4.51,0,0,1,85.6,2.8a2.974,2.974,0,0,1,1.217-.282Z"/>
    <path class="a" d="M90.646,2.52q.35,0,.769.036a6.79,6.79,0,0,1,.84.126,3.6,3.6,0,0,1,.756.246L92.8,4.284c-.36,0-.685,0-.973-.006s-.555-.006-.8-.006a1.772,1.772,0,0,0-.72.12.692.692,0,0,0-.372.414,2.584,2.584,0,0,0-.109.858,2.649,2.649,0,0,0,.109.858.672.672,0,0,0,.372.42,1.855,1.855,0,0,0,.72.114c.135,0,.3,0,.5-.006s.42-.012.661-.024.479-.03.719-.054l.2,1.368a4.081,4.081,0,0,1-1.169.354,8.534,8.534,0,0,1-1.314.1,4.49,4.49,0,0,1-1.812-.306,1.871,1.871,0,0,1-.985-1,4.674,4.674,0,0,1-.3-1.83,4.6,4.6,0,0,1,.307-1.848,1.9,1.9,0,0,1,.989-.99A4.533,4.533,0,0,1,90.646,2.52Z"/>
    <path class="a" d="M96.166.252l.012,1.908a6.387,6.387,0,0,1-.072.972,5.937,5.937,0,0,1-.156.756l.216.156V8.652H93.982V.252ZM98.41,2.52q1.728,0,1.728,1.668V8.652H97.954V4.872a.538.538,0,0,0-.114-.4.583.583,0,0,0-.4-.108,2.7,2.7,0,0,0-.642.084,5.428,5.428,0,0,0-.858.312l-.216-1.008a4.9,4.9,0,0,1,1.339-.924A3.258,3.258,0,0,1,98.41,2.52Z"/>
    <path class="a" d="M106.27,4.992l-.012,1.1H103.7a.588.588,0,0,0-.4.138.462.462,0,0,0-.126.342V6.8a.437.437,0,0,0,.15.354.685.685,0,0,0,.449.126,1.742,1.742,0,0,0,.637-.132,3.149,3.149,0,0,0,.66-.36,3.409,3.409,0,0,0,.564-.492v.768a4.4,4.4,0,0,1-.294.48,3.662,3.662,0,0,1-.51.582,2.531,2.531,0,0,1-1.788.678,2.541,2.541,0,0,1-1-.192,1.68,1.68,0,0,1-.726-.564,1.552,1.552,0,0,1-.27-.936v-.6a1.348,1.348,0,0,1,.51-1.122,2.177,2.177,0,0,1,1.386-.4ZM104.638,2.52A3.785,3.785,0,0,1,106,2.736a1.614,1.614,0,0,1,.846.72,2.819,2.819,0,0,1,.288,1.392v3.8h-1.74l-.3-1.284-.144-.216V4.836a.741.741,0,0,0-.186-.534.934.934,0,0,0-.63-.162q-.468,0-1.153.018t-1.427.066l-.192-1.4q.444-.084,1.037-.15c.4-.044.794-.08,1.195-.108S104.342,2.52,104.638,2.52Z"/>
    <path class="a" d="M110.025,2.688l.264,1.2.192.156V8.652H108.3V2.688Zm2.7-.168a1.5,1.5,0,0,1,1.727,1.668V8.652H112.27V4.872a.538.538,0,0,0-.115-.4.582.582,0,0,0-.4-.108,2.712,2.712,0,0,0-.643.084,5.459,5.459,0,0,0-.857.312l-.108-1.128A4.772,4.772,0,0,1,111.43,2.8,3.279,3.279,0,0,1,112.726,2.52Z"/>
    <path class="a" d="M117.705,2.52a3.987,3.987,0,0,1,1.248.192,2.208,2.208,0,0,1,1,.66l-.156.9c-.208-.064-.4-.126-.582-.186a2.174,2.174,0,0,0-.678-.09.961.961,0,0,0-.486.108.7.7,0,0,0-.276.45,4.417,4.417,0,0,0-.089,1.038,3.743,3.743,0,0,0,.084.93.618.618,0,0,0,.269.408.951.951,0,0,0,.462.1,1.869,1.869,0,0,0,.486-.054,1.638,1.638,0,0,0,.378-.156q.18-.1.4-.234l.144.96a2.438,2.438,0,0,1-.852.888,2.679,2.679,0,0,1-1.464.36,1.766,1.766,0,0,1-1.655-.834,4.674,4.674,0,0,1-.492-2.358,5.4,5.4,0,0,1,.257-1.878,1.7,1.7,0,0,1,.762-.936A2.618,2.618,0,0,1,117.705,2.52ZM121.726.252v8.4H120l-.216-1.128-.227-.156V3.54l.071-.156c-.023-.248-.042-.512-.054-.792s-.017-.556-.017-.828V.252Z"/>
    <path class="a" d="M124.545,0a.568.568,0,0,1,.636.648v.624a.568.568,0,0,1-.636.648h-.936a.568.568,0,0,1-.636-.648V.648A.568.568,0,0,1,123.609,0Zm.624,2.688V8.652H123V2.688Z"/>
    <path class="a" d="M128.854,2.52q.466,0,1,.036c.356.024.707.052,1.05.084a7.063,7.063,0,0,1,.888.132l-.144,1.3q-.588,0-1.182-.006t-1.146-.006q-.432,0-.648.012a.62.62,0,0,0-.294.066.225.225,0,0,0-.078.2.234.234,0,0,0,.156.24q.156.06.576.18l1.464.36a2.4,2.4,0,0,1,1.152.594,1.637,1.637,0,0,1,.372,1.17,2.039,2.039,0,0,1-.282,1.158,1.522,1.522,0,0,1-.906.582,6.405,6.405,0,0,1-1.62.168q-.408,0-1.2-.036a14.606,14.606,0,0,1-1.728-.192l.132-1.308q.18,0,.522.006t.762.006h.828q.588,0,.888-.018a.855.855,0,0,0,.4-.09.267.267,0,0,0-.078-.462q-.18-.066-.636-.186l-1.4-.372a2.619,2.619,0,0,1-.942-.432,1.325,1.325,0,0,1-.449-.624,2.587,2.587,0,0,1-.121-.828,1.708,1.708,0,0,1,.252-.966,1.534,1.534,0,0,1,.834-.57A5.207,5.207,0,0,1,128.854,2.52Z"/>
    <path class="a" d="M135.969,2.52a3.821,3.821,0,0,1,2.292.528,1.849,1.849,0,0,1,.683,1.56,1.446,1.446,0,0,1-.456,1.212,2.67,2.67,0,0,1-1.655.384h-3.265V5.112h2.653a.766.766,0,0,0,.522-.12.635.635,0,0,0,.113-.432.546.546,0,0,0-.191-.468,1.185,1.185,0,0,0-.624-.12,1.424,1.424,0,0,0-.643.1.614.614,0,0,0-.305.432,4.168,4.168,0,0,0-.084.972,3.784,3.784,0,0,0,.1,1,.777.777,0,0,0,.372.492,1.651,1.651,0,0,0,.763.144q.384,0,1.014-.03t1.326-.1l.2,1.32a3.847,3.847,0,0,1-.847.3,7.274,7.274,0,0,1-.954.156c-.328.032-.655.048-.983.048a4.589,4.589,0,0,1-1.92-.336,2.056,2.056,0,0,1-1.038-1.026,4.145,4.145,0,0,1-.318-1.734,4.5,4.5,0,0,1,.324-1.872,1.953,1.953,0,0,1,1.038-1A4.824,4.824,0,0,1,135.969,2.52Z"/>
    <path class="a" d="M17.928,19.392l-.012,1.1H15.36a.588.588,0,0,0-.4.138.462.462,0,0,0-.126.342V21.2a.437.437,0,0,0,.15.354.686.686,0,0,0,.45.126,1.742,1.742,0,0,0,.636-.132,3.149,3.149,0,0,0,.66-.36,3.409,3.409,0,0,0,.564-.492v.768a4.243,4.243,0,0,1-.294.48,3.662,3.662,0,0,1-.51.582,2.531,2.531,0,0,1-1.788.678,2.541,2.541,0,0,1-1-.192,1.68,1.68,0,0,1-.726-.564,1.552,1.552,0,0,1-.27-.936v-.6a1.348,1.348,0,0,1,.51-1.122,2.181,2.181,0,0,1,1.386-.4ZM16.3,16.92a3.785,3.785,0,0,1,1.362.216,1.614,1.614,0,0,1,.846.72,2.819,2.819,0,0,1,.288,1.392v3.8h-1.74l-.3-1.284-.144-.216V19.236a.737.737,0,0,0-.186-.534.932.932,0,0,0-.63-.162q-.468,0-1.152.018t-1.428.066l-.192-1.4q.444-.084,1.038-.15t1.194-.108Q15.852,16.92,16.3,16.92Z"/>
    <path class="a" d="M26.268,17.088l-1.86,5.448a.7.7,0,0,1-.7.516H21.84a.7.7,0,0,1-.426-.138.709.709,0,0,1-.258-.378L19.3,17.088h2.3l.888,3.492q.072.264.12.546t.1.558h.156q.048-.276.108-.558t.108-.546l.888-3.492Z"/>
    <path class="a" d="M31.74,19.392l-.012,1.1H29.172a.588.588,0,0,0-.4.138.462.462,0,0,0-.126.342V21.2a.437.437,0,0,0,.15.354.686.686,0,0,0,.45.126,1.742,1.742,0,0,0,.636-.132,3.149,3.149,0,0,0,.66-.36A3.409,3.409,0,0,0,31.1,20.7v.768a4.243,4.243,0,0,1-.294.48,3.662,3.662,0,0,1-.51.582,2.531,2.531,0,0,1-1.788.678,2.541,2.541,0,0,1-1-.192,1.68,1.68,0,0,1-.726-.564,1.552,1.552,0,0,1-.27-.936v-.6a1.348,1.348,0,0,1,.51-1.122,2.181,2.181,0,0,1,1.386-.4ZM30.108,16.92a3.785,3.785,0,0,1,1.362.216,1.614,1.614,0,0,1,.846.72,2.819,2.819,0,0,1,.288,1.392v3.8h-1.74l-.3-1.284-.144-.216V19.236a.737.737,0,0,0-.186-.534.932.932,0,0,0-.63-.162q-.468,0-1.152.018t-1.428.066l-.192-1.4q.444-.084,1.038-.15t1.194-.108Q29.664,16.92,30.108,16.92Z"/>
    <path class="a" d="M35.364,14.4a.568.568,0,0,1,.636.648v.624a.568.568,0,0,1-.636.648h-.936a.568.568,0,0,1-.636-.648v-.624a.568.568,0,0,1,.636-.648Zm.624,2.688v5.964H33.816V17.088Z"/>
    <path class="a" d="M39.444,14.652V21a.446.446,0,0,0,.162.384.789.789,0,0,0,.474.12h.444l.24,1.428a1.426,1.426,0,0,1-.456.156,6.092,6.092,0,0,1-.612.09q-.312.03-.528.03a2.071,2.071,0,0,1-1.392-.432,1.51,1.51,0,0,1-.5-1.212V14.652Z"/>
    <path class="a" d="M46.332,19.392l-.012,1.1H43.764a.588.588,0,0,0-.4.138.462.462,0,0,0-.126.342V21.2a.437.437,0,0,0,.15.354.686.686,0,0,0,.45.126,1.742,1.742,0,0,0,.636-.132,3.149,3.149,0,0,0,.66-.36A3.409,3.409,0,0,0,45.7,20.7v.768a4.243,4.243,0,0,1-.294.48,3.662,3.662,0,0,1-.51.582,2.531,2.531,0,0,1-1.788.678,2.541,2.541,0,0,1-1-.192,1.68,1.68,0,0,1-.726-.564,1.552,1.552,0,0,1-.27-.936v-.6a1.348,1.348,0,0,1,.51-1.122,2.181,2.181,0,0,1,1.386-.4ZM44.7,16.92a3.785,3.785,0,0,1,1.362.216,1.614,1.614,0,0,1,.846.72,2.819,2.819,0,0,1,.288,1.392v3.8h-1.74l-.3-1.284-.144-.216V19.236a.737.737,0,0,0-.186-.534.932.932,0,0,0-.63-.162q-.468,0-1.152.018t-1.428.066l-.192-1.4q.444-.084,1.038-.15t1.194-.108Q44.256,16.92,44.7,16.92Z"/>
    <path class="a" d="M50.52,14.652l.024,1.788a5.274,5.274,0,0,1-.042.834,3.38,3.38,0,0,1-.2.786l.216.156v4.6l-2.172-.1V14.652ZM52.4,16.92a1.961,1.961,0,0,1,1.728.72,4.235,4.235,0,0,1,.5,2.364,5.635,5.635,0,0,1-.126,1.218,2.735,2.735,0,0,1-.45,1.02,2.107,2.107,0,0,1-.93.7,4.16,4.16,0,0,1-1.577.252q-.325,0-.763-.03t-.9-.09q-.462-.06-.87-.15a3.442,3.442,0,0,1-.672-.21l1.74-1.212a2.839,2.839,0,0,0,.426.108,4.506,4.506,0,0,0,.528.066c.181.012.334.018.462.018a1.016,1.016,0,0,0,.528-.162.816.816,0,0,0,.276-.5,4.75,4.75,0,0,0,.084-1.02,4.1,4.1,0,0,0-.072-.882.639.639,0,0,0-.27-.426,1.053,1.053,0,0,0-.546-.12,1.521,1.521,0,0,0-.611.114,5.55,5.55,0,0,0-.577.294l-.156-.912a4.3,4.3,0,0,1,.624-.576,3.158,3.158,0,0,1,.762-.426A2.334,2.334,0,0,1,52.4,16.92Z"/>
    <path class="a" d="M57.828,14.652V21a.446.446,0,0,0,.162.384.791.791,0,0,0,.474.12h.444l.24,1.428a1.417,1.417,0,0,1-.456.156,6.092,6.092,0,0,1-.612.09q-.312.03-.528.03a2.071,2.071,0,0,1-1.392-.432,1.51,1.51,0,0,1-.5-1.212V14.652Z"/>
    <path class="a" d="M62.784,16.92a3.821,3.821,0,0,1,2.292.528,1.849,1.849,0,0,1,.684,1.56A1.449,1.449,0,0,1,65.3,20.22a2.676,2.676,0,0,1-1.656.384H60.384V19.512h2.652a.769.769,0,0,0,.523-.12.635.635,0,0,0,.113-.432.546.546,0,0,0-.192-.468,1.185,1.185,0,0,0-.624-.12,1.416,1.416,0,0,0-.642.1.615.615,0,0,0-.306.432,4.224,4.224,0,0,0-.084.972,3.735,3.735,0,0,0,.1,1,.771.771,0,0,0,.372.492,1.649,1.649,0,0,0,.763.144q.383,0,1.013-.03c.42-.02.863-.054,1.326-.1l.2,1.32a3.839,3.839,0,0,1-.846.3,7.3,7.3,0,0,1-.954.156q-.492.048-.984.048a4.612,4.612,0,0,1-1.92-.336,2.06,2.06,0,0,1-1.038-1.026,4.145,4.145,0,0,1-.318-1.734,4.5,4.5,0,0,1,.324-1.872,1.956,1.956,0,0,1,1.038-1A4.831,4.831,0,0,1,62.784,16.92Z"/>
    <path class="a" d="M74.207,19.392l-.012,1.1H71.64a.589.589,0,0,0-.4.138.462.462,0,0,0-.126.342V21.2a.435.435,0,0,0,.151.354.683.683,0,0,0,.449.126,1.751,1.751,0,0,0,.637-.132,3.2,3.2,0,0,0,.66-.36,3.4,3.4,0,0,0,.563-.492v.768a4.243,4.243,0,0,1-.294.48,3.6,3.6,0,0,1-.509.582,2.531,2.531,0,0,1-1.789.678,2.541,2.541,0,0,1-1-.192,1.683,1.683,0,0,1-.725-.564,1.546,1.546,0,0,1-.271-.936v-.6a1.348,1.348,0,0,1,.51-1.122,2.182,2.182,0,0,1,1.387-.4ZM72.575,16.92a3.8,3.8,0,0,1,1.363.216,1.608,1.608,0,0,1,.845.72,2.808,2.808,0,0,1,.288,1.392v3.8h-1.74l-.3-1.284-.143-.216V19.236A.741.741,0,0,0,72.7,18.7a.932.932,0,0,0-.63-.162c-.311,0-.7.006-1.152.018s-.932.034-1.428.066l-.191-1.4c.3-.056.641-.106,1.037-.15s.794-.08,1.194-.108S72.279,16.92,72.575,16.92Z"/>
    <path class="a" d="M80.543,17.088v1.356H75.791v-1.3l1.152-.06ZM79,15.48V21a.5.5,0,0,0,.132.384.655.655,0,0,0,.444.12h.7l.24,1.428a2.959,2.959,0,0,1-.582.156q-.342.06-.69.09t-.6.03a1.908,1.908,0,0,1-1.326-.438,1.556,1.556,0,0,1-.486-1.218l-.011-6.072Z"/>
    <path class="a" d="M86.074,14.652V21a.446.446,0,0,0,.162.384.791.791,0,0,0,.474.12h.444l.241,1.428a1.433,1.433,0,0,1-.457.156,6.092,6.092,0,0,1-.612.09q-.312.03-.528.03a2.071,2.071,0,0,1-1.392-.432,1.51,1.51,0,0,1-.5-1.212V14.652Z"/>
    <path class="a" d="M92.962,19.392l-.012,1.1H90.4a.589.589,0,0,0-.4.138.462.462,0,0,0-.126.342V21.2a.435.435,0,0,0,.151.354.683.683,0,0,0,.449.126,1.751,1.751,0,0,0,.637-.132,3.2,3.2,0,0,0,.66-.36,3.4,3.4,0,0,0,.563-.492v.768a4.243,4.243,0,0,1-.294.48,3.662,3.662,0,0,1-.51.582,2.526,2.526,0,0,1-1.788.678,2.541,2.541,0,0,1-1-.192,1.678,1.678,0,0,1-.725-.564,1.546,1.546,0,0,1-.271-.936v-.6a1.348,1.348,0,0,1,.51-1.122,2.182,2.182,0,0,1,1.387-.4ZM91.33,16.92a3.785,3.785,0,0,1,1.362.216,1.61,1.61,0,0,1,.846.72,2.819,2.819,0,0,1,.288,1.392v3.8h-1.74l-.3-1.284-.143-.216V19.236a.741.741,0,0,0-.187-.534.932.932,0,0,0-.63-.162c-.311,0-.7.006-1.152.018s-.932.034-1.428.066l-.191-1.4c.3-.056.641-.106,1.037-.15s.794-.08,1.194-.108S91.034,16.92,91.33,16.92Z"/>
    <path class="a" d="M97.138,17.088v3.78a.483.483,0,0,0,.12.4.633.633,0,0,0,.431.12,2.241,2.241,0,0,0,.6-.084,4.709,4.709,0,0,0,.774-.312L99.2,22.1a4.838,4.838,0,0,1-1.236.84,3.061,3.061,0,0,1-1.272.276q-1.74,0-1.74-1.668V17.088Zm3.888,0v5.964H99.31l-.264-1.2-.216-.144v-4.62Z"/>
    <path class="a" d="M103.978,17.088l.263,1.2.193.156v4.608H102.25V17.088Zm2.7-.168a1.5,1.5,0,0,1,1.727,1.668v4.464h-2.183v-3.78a.534.534,0,0,0-.115-.4.582.582,0,0,0-.4-.108,2.712,2.712,0,0,0-.643.084,5.459,5.459,0,0,0-.857.312l-.108-1.128a4.772,4.772,0,0,1,1.284-.834A3.279,3.279,0,0,1,106.678,16.92Z"/>
    <path class="a" d="M112.485,16.92q.35,0,.769.036a6.818,6.818,0,0,1,.84.126,3.6,3.6,0,0,1,.756.246l-.216,1.356q-.541,0-.973-.006t-.8-.006a1.767,1.767,0,0,0-.719.12.692.692,0,0,0-.372.414,2.584,2.584,0,0,0-.109.858,2.649,2.649,0,0,0,.109.858.672.672,0,0,0,.372.42,1.85,1.85,0,0,0,.719.114q.2,0,.5-.006c.2,0,.42-.012.66-.024s.48-.03.72-.054l.2,1.368a4.079,4.079,0,0,1-1.17.354,8.511,8.511,0,0,1-1.313.1,4.5,4.5,0,0,1-1.813-.306,1.873,1.873,0,0,1-.984-1,4.674,4.674,0,0,1-.3-1.83,4.6,4.6,0,0,1,.307-1.848,1.9,1.9,0,0,1,.989-.99A4.533,4.533,0,0,1,112.485,16.92Z"/>
    <path class="a" d="M118.005,14.652l.012,1.908a6.387,6.387,0,0,1-.072.972,6.118,6.118,0,0,1-.156.756l.216.156v4.608h-2.184v-8.4Zm2.244,2.268q1.728,0,1.728,1.668v4.464h-2.184v-3.78a.538.538,0,0,0-.114-.4.583.583,0,0,0-.4-.108,2.7,2.7,0,0,0-.642.084,5.428,5.428,0,0,0-.858.312l-.216-1.008a4.894,4.894,0,0,1,1.338-.924A3.263,3.263,0,0,1,120.249,16.92Z"/>
    <path class="a" d="M125.528,14.712v3l-.227,2.664h-1.7l-.228-2.664v-3Zm-.827,6.3a.62.62,0,0,1,.756.756V22.3a.62.62,0,0,1-.756.756h-.492a.62.62,0,0,1-.756-.756v-.528a.62.62,0,0,1,.756-.756Z"/>
  </g>
</svg>
