<svg xmlns="http://www.w3.org/2000/svg" xmlns:xlink="http://www.w3.org/1999/xlink" width="1302" height="19.555" viewBox="0 0 1302 19.555">
  <defs>
    <style>
      .a {
        isolation: isolate;
      }

      .b {
        mix-blend-mode: color-dodge;
        fill: url(#a);
      }
    </style>
    <radialGradient id="a" cx="651" cy="9.778" r="460.378" gradientUnits="userSpaceOnUse">
      <stop offset="0" stop-color="#d0d0d0"/>
      <stop offset="0.071" stop-color="#a4a4a4"/>
      <stop offset="0.163" stop-color="#727272"/>
      <stop offset="0.253" stop-color="#494949"/>
      <stop offset="0.341" stop-color="#292929"/>
      <stop offset="0.426" stop-color="#121212"/>
      <stop offset="0.505" stop-color="#050505"/>
      <stop offset="0.576"/>
      <stop offset="0.758"/>
      <stop offset="0.805" stop-color="#2c2c2c"/>
      <stop offset="0.9" stop-color="#828282"/>
      <stop offset="0.967" stop-color="#b7b7b7"/>
      <stop offset="1" stop-color="#ccc"/>
    </radialGradient>
  </defs>
  <g class="a">
    <path class="b" d="M1302,3.5H1094.049q0-1.749,0-3.5V3.5h-.538q0-1.743,0-3.485V3.5h-.538c0-1.158,0-2.316,0-3.473V3.5h-.538c0-1.154,0-2.309,0-3.461V3.5h-.538c0-1.15,0-2.3,0-3.449V3.5h-.538c0-1.146,0-2.292,0-3.437V3.5h-.539q0-1.713,0-3.425V3.5h-.539q0-1.707,0-3.413V3.5h-.539q0-1.7,0-3.4V3.5h-.539q0-1.695,0-3.389V3.5h-.539q0-1.689,0-3.377V3.5h-.539q0-1.683,0-3.365V3.5h-.539q0-1.677,0-3.353V3.5H1087q0-1.671,0-3.341V3.5h-.539q0-1.665,0-3.33V3.5h-.539q0-1.659,0-3.318V3.5h-.54q0-1.653,0-3.306V3.5h-.539q0-1.647,0-3.294V3.5h-.539c0-1.094,0-2.189,0-3.282V3.5h-.539c0-1.09,0-2.181,0-3.27V3.5h-.539c0-1.086,0-2.173,0-3.258V3.5h-.539q0-1.623,0-3.246V3.5h-.539q0-1.617,0-3.234V3.5h-.539q0-1.611,0-3.222V3.5h-.539q0-1.6,0-3.21V3.5h-.539q0-1.6,0-3.2V3.5h-.539q0-1.593,0-3.186V3.5h-.538c0-1.058,0-2.117,0-3.174V3.5h-.539c0-1.054,0-2.109,0-3.162V3.5h-.539c0-1.05,0-2.1,0-3.15V3.5h-.539c0-1.046,0-2.093,0-3.138V3.5h-.539q0-1.563,0-3.126V3.5h-.539q0-1.557,0-3.114V3.5h-.539q0-1.551,0-3.1V3.5h-.539q0-1.545,0-3.09V3.5h-.539q0-1.539,0-3.078V3.5h-.539q0-1.533,0-3.066V3.5H1074q0-1.527,0-3.054V3.5h-.539q0-1.521,0-3.042V3.5h-.539q0-1.515,0-3.03V3.5h-.539q0-1.509,0-3.018V3.5h-.539q0-1.5,0-3.007V3.5h-.539c0-1,0-2,0-2.995v3h-.539c0-.994,0-1.989,0-2.983V3.5h-.539c0-.99,0-1.981,0-2.971V3.5h-.539c0-.986,0-1.973,0-2.959V3.5h-.539c0-.982,0-1.965,0-2.947V3.5h-.539q0-1.467,0-2.935V3.5h-.539q0-1.461,0-2.923V3.5h-.539q0-1.455,0-2.911V3.5h-.539c0-.966,0-1.934,0-2.9V3.5h-.539q0-1.443,0-2.887V3.5h-.539q0-1.437,0-2.875V3.5h-.539q0-1.432,0-2.863V3.5h-.539c0-.95,0-1.9,0-2.851V3.5h-.539q0-1.419,0-2.839V3.5h-.54c0-.942,0-1.886,0-2.827V3.5h-.54c0-.938,0-1.878,0-2.815V3.5h-.54c0-.935,0-1.87,0-2.8V3.5h-.54c0-.93,0-1.862,0-2.791V3.5h-.539c0-.926,0-1.854,0-2.779V3.5h-.539c0-.923,0-1.846,0-2.768V3.5h-.539c0-.918,0-1.838,0-2.755V3.5h-.539q0-1.371,0-2.744V3.5h-.539q0-1.367,0-2.731V3.5h-.539q0-1.36,0-2.72V3.5h-.539q0-1.354,0-2.707V3.5h-.539q0-1.348,0-2.7V3.5h-.539q0-1.341,0-2.684V3.5h-.539q0-1.336,0-2.672V3.5h-.54q0-1.33,0-2.66V3.5h-.54q0-1.324,0-2.648V3.5h-.54q0-1.319,0-2.636V3.5h-.54c0-.875,0-1.75,0-2.624V3.5h-.54c0-.871,0-1.742,0-2.612V3.5h-.54c0-.867,0-1.734,0-2.6V3.5h-.54c0-.863,0-1.726,0-2.588V3.5h-.539c0-.859,0-1.718,0-2.576V3.5h-.539q0-1.282,0-2.564V3.5h-.539q0-1.276,0-2.552V3.5h-.539q0-1.271,0-2.54V3.5h-.539q0-1.264,0-2.528V3.5h-.539q0-1.258,0-2.516V3.5h-.539q0-1.252,0-2.5V3.5h-.54q0-1.247,0-2.492V3.5h-.54q0-1.24,0-2.48V3.5h-.54q0-1.234,0-2.468V3.5h-.54q0-1.228,0-2.456V3.5h-.54q0-1.223,0-2.445V3.5h-.54c0-.811,0-1.622,0-2.433V3.5h-.54c0-.807,0-1.614,0-2.421V3.5h-.54c0-.8,0-1.606,0-2.409V3.5h-.54c0-.8,0-1.6,0-2.4V3.5h-.539c0-.795,0-1.591,0-2.385V3.5h-.539q0-1.186,0-2.373V3.5h-.539q0-1.18,0-2.361V3.5h-.539q0-1.174,0-2.349V3.5h-.54q0-1.168,0-2.337V3.5h-.54q0-1.162,0-2.325V3.5h-.54q0-1.156,0-2.313V3.5h-.54q0-1.15,0-2.3V3.5h-.54q0-1.144,0-2.289V3.5h-.54q0-1.138,0-2.277V3.5h-.54q0-1.132,0-2.265V3.5h-.54q0-1.126,0-2.253V3.5h-.54q0-1.12,0-2.241V3.5h-.54q0-1.114,0-2.229V3.5h-.54q0-1.108,0-2.217V3.5h-.54q0-1.1,0-2.2V3.5h-.54q0-1.1,0-2.193V3.5h-.54q0-1.09,0-2.181V3.5h-.54q0-1.084,0-2.169V3.5h-.54c0-.719,0-1.439,0-2.157V3.5h-.54c0-.715,0-1.431,0-2.145V3.5h-.54c0-.711,0-1.423,0-2.133V3.5h-.54c0-.707,0-1.415,0-2.122V3.5h-.54c0-.7,0-1.407,0-2.11V3.5h-.539q0-1.048,0-2.1V3.5h-.54q0-1.042,0-2.086V3.5h-.54q0-1.036,0-2.074V3.5h-.54q0-1.03,0-2.062V3.5h-.54q0-1.024,0-2.05V3.5h-.54q0-1.018,0-2.038V3.5h-.54q0-1.012,0-2.026V3.5h-.54q0-1.006,0-2.014V3.5h-.54q0-1,0-2v2h-.54q0-1,0-1.99V3.5h-.54q0-.988,0-1.978V3.5h-.54c0-.655,0-1.311,0-1.966V3.5h-.54c0-.651,0-1.3,0-1.954V3.5h-.54c0-.647,0-1.295,0-1.942V3.5h-.54c0-.643,0-1.288,0-1.93V3.5h-.541c0-.64,0-1.279,0-1.918V3.5h-.541q0-.952,0-1.906V3.5h-.54q0-.948,0-1.894V3.5h-.54c0-.627,0-1.256,0-1.882V3.5h-.54q0-.934,0-1.871V3.5h-.54q0-.93,0-1.858V3.5h-.54q0-.924,0-1.847V3.5h-.54q0-.918,0-1.834V3.5h-.54q0-.912,0-1.823V3.5h-.54c0-.6,0-1.208,0-1.811V3.5h-.54q0-.9,0-1.8V3.5h-.54q0-.894,0-1.787V3.5h-.54c0-.592,0-1.184,0-1.775V3.5h-.54c0-.588,0-1.176,0-1.763V3.5h-.541c0-.584,0-1.168,0-1.751V3.5h-.541c0-.58,0-1.16,0-1.739V3.5h-.541c0-.576,0-1.152,0-1.727V3.5h-.541q0-.858,0-1.715V3.5h-.541q0-.852,0-1.7V3.5h-.54q0-.846,0-1.691V3.5h-.54q0-.84,0-1.679V3.5h-.54q0-.834,0-1.667V3.5h-.54q0-.828,0-1.655V3.5h-.54q0-.822,0-1.643V3.5h-.54q0-.816,0-1.631V3.5h-.54q0-.81,0-1.619V3.5h-.54q0-.8,0-1.607V3.5h-.54c0-.532,0-1.064,0-1.595V3.5h-.541c0-.528,0-1.056,0-1.583V3.5h-.541c0-.524,0-1.048,0-1.571V3.5h-.541c0-.52,0-1.04,0-1.559V3.5h-.541c0-.516,0-1.032,0-1.548V3.5h-.541c0-.512,0-1.024,0-1.536V3.5h-.541q0-.762,0-1.524V3.5h-.541q0-.756,0-1.512V3.5h-.54q0-.75,0-1.5V3.5H1003q0-.744,0-1.488V3.5h-.54q0-.738,0-1.476V3.5h-.54q0-.732,0-1.464V3.5h-.54q0-.726,0-1.452V3.5h-.54q0-.72,0-1.44V3.5h-.54c0-.476,0-.953,0-1.428V3.5h-.541c0-.472,0-.945,0-1.416V3.5h-.541c0-.468,0-.936,0-1.4V3.5h-.541c0-.464,0-.929,0-1.392V3.5h-.541c0-.46,0-.921,0-1.38V3.5h-.541c0-.456,0-.913,0-1.368V3.5H955.835c0-.149,0-.3,0-.447V3.5H872.339c0-1.16,0-2.323-.006-3.482V3.5h-1.259c0-1.142,0-2.286-.006-3.426V3.5H869.81c0-1.123,0-2.249-.007-3.37V3.5h-1.258c0-1.1,0-2.211-.006-3.314V3.5H867.28c0-1.086,0-2.174-.006-3.259V3.5h-1.259c0-1.067,0-2.137-.006-3.2V3.5H864.75c0-1.049,0-2.1-.006-3.147V3.5h-1.259c0-1.03,0-2.063-.006-3.091V3.5H862.22q0-1.518,0-3.036V3.5h-1.259c0-.993,0-1.988-.006-2.98V3.5h-1.26c0-.975,0-1.951-.005-2.924V3.5h-1.259c0-.956,0-1.914-.006-2.868V3.5h-1.259c0-.937,0-1.876,0-2.812V3.5H855.9c0-.919,0-1.839,0-2.757V3.5h-1.26c0-.9,0-1.8,0-2.7V3.5h-1.26c0-.881,0-1.765,0-2.645V3.5H852.1c0-.863,0-1.728,0-2.589V3.5h-1.261c0-.844,0-1.69,0-2.534V3.5h-1.26c0-.826,0-1.653,0-2.478V3.5h-1.26c0-.807,0-1.616,0-2.422V3.5h-1.26c0-.789,0-1.579,0-2.366V3.5h-1.261c0-.77,0-1.541,0-2.31V3.5h-1.261c0-.751,0-1.5,0-2.255V3.5h-1.26c0-.733,0-1.467,0-2.2V3.5h-1.261c0-.714,0-1.43,0-2.143V3.5h-1.261c0-.695,0-1.393,0-2.087V3.5h-1.261c0-.677,0-1.355,0-2.031V3.5h-1.261c0-.658,0-1.318,0-1.976V3.5h-1.261c0-.64,0-1.281,0-1.92V3.5h-1.261c0-.621,0-1.244,0-1.864V3.5h-1.261c0-.6,0-1.206,0-1.808V3.5h-1.262c0-.584,0-1.169,0-1.752V3.5h-1.261c0-.565,0-1.132,0-1.7V3.5H830.6c0-.547,0-1.095,0-1.641V3.5h-1.262c0-.528,0-1.058,0-1.585V3.5h-1.262c0-.51,0-1.02,0-1.529V3.5H826.8c0-.491,0-.983,0-1.474V3.5h-1.262c0-.472,0-.946,0-1.418V3.5h-1.263c0-.454,0-.909,0-1.362V3.5H823.01c0-.435,0-.872,0-1.306V3.5h-1.262c0-.417,0-.834,0-1.25V3.5H820.48c0-.4,0-.8,0-1.195V3.5h-1.263c0-.38,0-.76,0-1.139V3.5H817.95c0-.361,0-.723,0-1.083V3.5h-1.262c0-.342,0-.685,0-1.027V3.5H815.42c0-.324,0-.648,0-.972V3.5h-1.262c0-.3,0-.611,0-.916V3.5h-1.263c0-.287,0-.574,0-.86V3.5h-1.263c0-.268,0-.537,0-.8v.8h-1.264c0-.249,0-.5,0-.748V3.5H809.1c0-.231,0-.462,0-.693V3.5h-1.264c0-.212,0-.425,0-.637V3.5h-1.264c0-.194,0-.388,0-.581V3.5H805.3c0-.175,0-.351,0-.525V3.5h-1.264c0-.157,0-.313,0-.469V3.5h-1.264c0-.138,0-.276,0-.414V3.5h-1.264c0-.119,0-.239,0-.358V3.5h-1.264v0h-1.265v0h-1.265v0h-1.265v0h-1.264v0h-1.265v0h-32.9c-.006-1.136,0-2.278-.013-3.411V3.5h-1.252c0-1.1,0-2.2-.012-3.3V3.5H758.49c0-1.062,0-2.129-.012-3.188V3.5h-1.253c0-1.025,0-2.055-.011-3.077V3.5H755.96c0-.988,0-1.98-.011-2.966V3.5H754.7c0-.951,0-1.906-.01-2.854V3.5h-1.254c0-.914,0-1.831-.011-2.743V3.5h-1.254c-.005-.876,0-1.757-.01-2.632V3.5H750.9c0-.839,0-1.683-.009-2.52V3.5h-1.256c0-.8,0-1.608-.009-2.409V3.5h-1.256c0-.765,0-1.534-.008-2.3V3.5h-1.257c0-.728,0-1.46-.008-2.186V3.5h-1.257c0-.691,0-1.385-.008-2.075V3.5h-1.256c0-.653,0-1.311-.008-1.963V3.5h-1.257c0-.617,0-1.237-.007-1.852V3.5h-1.258c0-.58,0-1.162-.006-1.74V3.5h-1.259c0-.542,0-1.088-.006-1.629V3.5h-1.259c0-.5,0-1.013-.006-1.518V3.5h-1.259c0-.468,0-.939,0-1.406V3.5h-1.26c0-.431,0-.865,0-1.295V3.5h-1.259c0-.394,0-.79,0-1.183V3.5h-1.26c0-.357,0-.716,0-1.072V3.5h-1.261c0-.32,0-.642,0-.96V3.5h-1.261c0-.283,0-.567,0-.849V3.5h-1.262c0-.246,0-.493,0-.738V3.5H729.4c0-.208,0-.418,0-.626V3.5h-1.263c0-.171,0-.344,0-.515V3.5h-1.263c0-.134,0-.269,0-.4v.4H725.6c0-.1,0-.195,0-.292V3.5h-1.264c0-.06,0-.121,0-.181V3.5h-1.264v0H706.607c-.011-1.162-.008-2.336-.025-3.492V3.5h-1.239c-.011-1.088-.009-2.187-.025-3.27V3.5h-1.24c-.011-1.014-.008-2.039-.023-3.048V3.5h-1.242c-.01-.94-.007-1.89-.021-2.826V3.5h-1.244c-.009-.866-.006-1.741-.019-2.6V3.5h-1.246c-.009-.792-.006-1.593-.017-2.382V3.5h-1.248c-.008-.718,0-1.444-.016-2.16V3.5h-1.249c-.007-.644,0-1.3-.014-1.937V3.5h-1.251c-.006-.57,0-1.147-.012-1.715V3.5h-1.252c-.006-.5,0-1-.012-1.493V3.5h-1.253c0-.422,0-.85-.01-1.271V3.5h-1.255c0-.348,0-.7-.008-1.049V3.5h-1.257c0-.275,0-.553-.006-.827V3.5h-1.259c0-.2,0-.4,0-.6V3.5H688.9c0-.127,0-.256,0-.383V3.5h-1.262c0-.053,0-.107,0-.161V3.5H678.76c-.022-1.146-.043-2.293-.077-3.428V3.5h-1.191c-.02-1-.037-2-.067-2.987V3.5h-1.2c-.017-.85-.031-1.7-.056-2.545V3.5h-1.212c-.016-.7-.026-1.408-.047-2.1V3.5h-1.221c-.013-.554-.02-1.113-.037-1.663V3.5h-1.24c-.01-.4-.006-.82-.018-1.222V3.5h-1.247c-.007-.258,0-.524-.012-.78V3.5H669.88c0-.112,0-.228,0-.339V3.5h-5.1c-.043-1.1-.083-2.21-.147-3.288V3.5H663.5c-.035-.808-.061-1.625-.108-2.418V3.5h-1.17c-.025-.515-.039-1.041-.07-1.548V3.5h-1.208c-.012-.224-.017-.456-.031-.678V3.5H657.05c-.064-.723-.137-1.432-.223-2.12V3.5h-1.118c-.017-.145-.029-.3-.047-.439V3.5h-1.345a24,24,0,0,0-.634-2.875V3.5h-.952c-.452-1.455-1.06-2.352-1.731-2.352s-1.279.9-1.731,2.352h-.952V.622a24,24,0,0,0-.634,2.875h-1.345V3.058c-.018.142-.03.294-.047.439h-1.118V1.377c-.086.688-.159,1.4-.223,2.12h-3.863V2.819c-.014.222-.019.454-.031.678h-1.208V1.949c-.031.507-.045,1.033-.07,1.548h-1.17V1.079c-.047.793-.073,1.61-.108,2.418h-1.131V.209c-.064,1.078-.1,2.185-.147,3.288h-5.1V3.158c0,.111,0,.227,0,.339h-1.253v-.78c-.008.256,0,.522-.012.78h-1.247V2.275c-.012.4-.008.818-.018,1.222h-1.24V1.834c-.017.55-.024,1.109-.037,1.663h-1.221v-2.1c-.021.7-.031,1.4-.047,2.1h-1.212V.952c-.025.842-.039,1.695-.056,2.545h-1.2V.51c-.03.989-.047,1.989-.067,2.987h-1.191V.069c-.034,1.135-.055,2.282-.077,3.428h-8.873V3.336c0,.054,0,.108,0,.161H613.1V3.114c0,.127,0,.256,0,.383H611.84v-.6c0,.2,0,.4,0,.605h-1.259V2.67c0,.274,0,.552-.006.827h-1.257V2.448c0,.347,0,.7-.008,1.049h-1.255V2.226c-.007.421,0,.849-.01,1.271h-1.253V2c-.008.494-.006,1-.012,1.493h-1.252V1.782c-.008.568-.006,1.145-.012,1.715h-1.251V1.56c-.01.641-.007,1.293-.014,1.937H603V1.337c-.011.716-.008,1.442-.016,2.16h-1.248V1.115c-.011.789-.008,1.59-.017,2.382h-1.246V.893c-.013.863-.01,1.738-.019,2.6h-1.244V.671c-.014.936-.011,1.886-.021,2.826h-1.242V.449c-.015,1.009-.012,2.034-.023,3.048h-1.24V.227c-.016,1.083-.014,2.182-.025,3.27h-1.239V.005c-.017,1.156-.014,2.33-.025,3.492H578.926v0h-1.264V3.316c0,.06,0,.121,0,.181H576.4V3.205c0,.1,0,.195,0,.292h-1.263v-.4c0,.134,0,.269,0,.4h-1.263V2.982c0,.171,0,.344,0,.515H572.6V2.871c0,.208,0,.418,0,.626H571.34V2.759c0,.245,0,.492,0,.738h-1.262V2.648c0,.282,0,.566,0,.849h-1.261v-.96c0,.318,0,.64,0,.96h-1.261V2.425c0,.356,0,.715,0,1.072h-1.26V2.314c0,.393,0,.789,0,1.183h-1.259V2.2c0,.43,0,.864,0,1.3h-1.26V2.091c0,.467,0,.938,0,1.406h-1.259V1.979c0,.5,0,1.013-.006,1.518h-1.259V1.868c0,.541,0,1.087-.006,1.629h-1.259V1.757c0,.578,0,1.16-.006,1.74H558.7V1.645c0,.615,0,1.235-.007,1.852h-1.257V1.534c0,.652,0,1.31-.008,1.963h-1.256V1.422c-.006.69,0,1.384-.008,2.075H554.9V1.311c-.006.726,0,1.458-.008,2.186h-1.256V1.2c-.006.763,0,1.532-.009,2.3h-1.256V1.088c-.006.8,0,1.607-.009,2.409h-1.256V.977c0,.837,0,1.681-.009,2.52h-1.255V.865c-.007.875,0,1.756-.01,2.632H548.58V.754c-.007.912-.006,1.829-.011,2.743h-1.254V.643c-.007.948-.005,1.9-.01,2.854h-1.254V.531c-.008.986-.006,1.978-.011,2.966h-1.254V.42c-.007,1.022-.006,2.052-.011,3.077h-1.253V.309c-.008,1.059-.007,2.126-.012,3.188h-1.253V.2c-.008,1.1-.007,2.2-.012,3.3h-1.252V.086c-.009,1.133-.007,2.275-.013,3.411h-32.9v0h-1.265v0h-1.264v0h-1.265v0h-1.265v0h-1.265v0h-1.264V3.139c0,.119,0,.239,0,.358h-1.264V3.083c0,.138,0,.276,0,.414h-1.264V3.028c0,.156,0,.312,0,.469H496.7V2.972c0,.174,0,.35,0,.525h-1.263V2.916c0,.193,0,.387,0,.581H494.17V2.86c0,.212,0,.425,0,.637h-1.264V2.8c0,.231,0,.462,0,.693h-1.263V2.749c0,.249,0,.5,0,.748h-1.264v-.8c0,.267,0,.536,0,.8h-1.263v-.86c0,.286,0,.573,0,.86h-1.263V2.581c0,.305,0,.611,0,.916h-1.262V2.525c0,.324,0,.648,0,.972h-1.264V2.47c0,.342,0,.685,0,1.027h-1.262V2.414c0,.36,0,.722,0,1.083h-1.263V2.358c0,.379,0,.759,0,1.139h-1.263V2.3c0,.4,0,.8,0,1.195h-1.262V2.247c0,.416,0,.833,0,1.25h-1.262V2.191c0,.434,0,.871,0,1.306h-1.262V2.135c0,.453,0,.908,0,1.362h-1.263V2.079c0,.472,0,.946,0,1.418H475.2V2.023c0,.491,0,.983,0,1.474h-1.262V1.968c0,.509,0,1.019,0,1.529h-1.262V1.912c0,.527,0,1.057,0,1.585H471.4V1.856c0,.546,0,1.094,0,1.641H470.14V1.8c0,.565,0,1.132,0,1.7h-1.261V1.745c0,.583,0,1.168,0,1.752H467.61V1.689c0,.6,0,1.206,0,1.808h-1.261V1.633c0,.62,0,1.243,0,1.864h-1.261V1.577c0,.639,0,1.28,0,1.92h-1.261V1.521c0,.658,0,1.318,0,1.976h-1.261V1.466c0,.676,0,1.354,0,2.031h-1.261V1.41c0,.694,0,1.392,0,2.087h-1.261V1.354c0,.713,0,1.429,0,2.143h-1.261V1.3c0,.732,0,1.466,0,2.2h-1.26V1.242c0,.751,0,1.5,0,2.255h-1.261V1.187c0,.769,0,1.54,0,2.31h-1.261V1.131c0,.787,0,1.577,0,2.366H453.7V1.075c0,.806,0,1.615,0,2.422h-1.26V1.019c0,.825,0,1.652,0,2.478h-1.26V.963c0,.844,0,1.69,0,2.534H449.9V.908c0,.861,0,1.726,0,2.589h-1.259V.852c0,.88,0,1.764,0,2.645h-1.26V.8c0,.9,0,1.8,0,2.7h-1.26V.74c0,.918,0,1.838,0,2.757h-1.26V.685c0,.936,0,1.875,0,2.812H443.58V.629c0,.954,0,1.912-.006,2.868h-1.259V.573c0,.973,0,1.949,0,2.924h-1.26V.517c0,.992,0,1.987-.006,2.98h-1.259V.461q0,1.516-.005,3.036h-1.259V.406c0,1.028,0,2.061-.006,3.091h-1.259V.35c0,1.047,0,2.1-.006,3.147h-1.259V.294c0,1.066,0,2.136-.006,3.2h-1.259V.238c0,1.085,0,2.173-.006,3.259h-1.259V.183c0,1.1,0,2.209-.006,3.314H432.2V.127c0,1.121,0,2.247-.007,3.37h-1.258V.071c0,1.14,0,2.284-.006,3.426h-1.259V.015c0,1.159,0,2.322-.006,3.482H346.166V3.05c0,.149,0,.3,0,.447H304.417V2.129c0,.455,0,.912,0,1.368h-.541V2.117c0,.459,0,.92,0,1.38h-.541V2.105c0,.463,0,.928,0,1.392h-.541v-1.4c0,.468,0,.936,0,1.4h-.541V2.081c0,.471,0,.944,0,1.416h-.541V2.069c0,.475,0,.952,0,1.428h-.54V2.057q0,.72,0,1.44h-.54V2.045q0,.726,0,1.452h-.54V2.033q0,.732,0,1.464h-.54V2.021q0,.738,0,1.476H299V2.009q0,.744,0,1.488h-.54V2q0,.75,0,1.5h-.54V1.985q0,.756,0,1.512h-.541V1.973q0,.762,0,1.524h-.541V1.961c0,.512,0,1.024,0,1.536h-.541V1.949c0,.516,0,1.032,0,1.548h-.541V1.938c0,.519,0,1.039,0,1.559H295.2V1.926c0,.523,0,1.047,0,1.571h-.541V1.914c0,.527,0,1.055,0,1.583h-.541V1.9c0,.531,0,1.063,0,1.6h-.54V1.89q0,.8,0,1.607h-.54V1.878q0,.808,0,1.619h-.54V1.866q0,.814,0,1.631h-.54V1.854q0,.82,0,1.643h-.54V1.842q0,.826,0,1.655h-.54V1.83q0,.832,0,1.667h-.54V1.818q0,.838,0,1.679h-.54V1.806q0,.845,0,1.691h-.54v-1.7q0,.851,0,1.7H288.7V1.782q0,.857,0,1.715h-.541V1.77c0,.575,0,1.151,0,1.727h-.541V1.758c0,.579,0,1.159,0,1.739h-.541V1.746c0,.583,0,1.167,0,1.751h-.541V1.734c0,.587,0,1.175,0,1.763h-.54V1.722c0,.591,0,1.183,0,1.775h-.54V1.71q0,.893,0,1.787h-.54V1.7q0,.9,0,1.8h-.54V1.686c0,.6,0,1.208,0,1.811h-.54V1.674q0,.911,0,1.823h-.54V1.663q0,.915,0,1.834h-.54V1.65q0,.923,0,1.847h-.54V1.639q0,.927,0,1.858h-.54V1.626q0,.936,0,1.871h-.54V1.615c0,.626,0,1.255,0,1.882h-.54V1.6q0,.945,0,1.894h-.54V1.591q0,.952,0,1.906h-.541V1.579c0,.639,0,1.278,0,1.918h-.541V1.567c0,.642,0,1.287,0,1.93h-.54V1.555c0,.647,0,1.3,0,1.942h-.54V1.543c0,.651,0,1.3,0,1.954h-.54V1.531c0,.655,0,1.311,0,1.966h-.54V1.519q0,.988,0,1.978h-.54V1.507q0,.995,0,1.99h-.54v-2q0,1,0,2h-.54V1.483q0,1.006,0,2.014h-.54V1.471q0,1.012,0,2.026h-.54V1.459q0,1.019,0,2.038h-.54V1.447q0,1.024,0,2.05h-.54V1.435q0,1.03,0,2.062h-.54V1.423q0,1.036,0,2.074h-.54V1.411q0,1.043,0,2.086h-.54V1.4q0,1.048,0,2.1h-.539V1.387c0,.7,0,1.407,0,2.11h-.54V1.375c0,.707,0,1.415,0,2.122h-.54V1.364c0,.71,0,1.422,0,2.133h-.54V1.352c0,.714,0,1.43,0,2.145h-.54V1.34c0,.718,0,1.438,0,2.157h-.54V1.328q0,1.083,0,2.169h-.54V1.316q0,1.089,0,2.181h-.54V1.3q0,1.1,0,2.193h-.54v-2.2q0,1.1,0,2.205h-.54V1.28q0,1.107,0,2.217h-.54V1.268q0,1.113,0,2.229h-.54V1.256q0,1.119,0,2.241h-.54V1.244q0,1.125,0,2.253h-.54V1.232q0,1.131,0,2.265h-.54V1.22q0,1.137,0,2.277h-.54V1.208q0,1.143,0,2.289h-.54V1.2q0,1.149,0,2.3h-.54V1.184q0,1.155,0,2.313h-.54V1.172q0,1.161,0,2.325h-.54V1.16q0,1.167,0,2.337h-.54V1.148q0,1.173,0,2.349h-.539V1.136q0,1.179,0,2.361H258.9V1.124q0,1.187,0,2.373h-.539V1.112c0,.794,0,1.59,0,2.385h-.539V1.1c0,.8,0,1.6,0,2.4h-.54V1.088c0,.8,0,1.606,0,2.409h-.54V1.076c0,.807,0,1.614,0,2.421h-.54V1.064c0,.811,0,1.622,0,2.433h-.54V1.052q0,1.222,0,2.445h-.54V1.041q0,1.227,0,2.456h-.54V1.029q0,1.233,0,2.468h-.54V1.017q0,1.239,0,2.48h-.54V1q0,1.245,0,2.492h-.54V.993q0,1.251,0,2.5h-.539V.981q0,1.257,0,2.516h-.539V.969q0,1.263,0,2.528h-.539V.957q0,1.269,0,2.54h-.539V.945q0,1.275,0,2.552h-.539V.933c0,.854,0,1.709,0,2.564h-.539V.921c0,.858,0,1.717,0,2.576h-.539V.909c0,.862,0,1.725,0,2.588h-.54V.9c0,.866,0,1.733,0,2.6h-.54V.885c0,.87,0,1.741,0,2.612h-.54V.873c0,.874,0,1.749,0,2.624h-.54V.861q0,1.317,0,2.636h-.54V.849q0,1.323,0,2.648h-.54V.837q0,1.329,0,2.66h-.54V.825q0,1.335,0,2.672h-.539V.813q0,1.341,0,2.684h-.539V.8q0,1.347,0,2.7h-.539V.79q0,1.352,0,2.707h-.539V.777q0,1.359,0,2.72h-.539V.766q0,1.364,0,2.731H242.1V.753q0,1.371,0,2.744h-.539V.742c0,.917,0,1.837,0,2.755h-.539V.729c0,.922,0,1.845,0,2.768h-.539V.718c0,.925,0,1.853,0,2.779h-.539V.706c0,.929,0,1.861,0,2.791h-.54V.694c0,.933,0,1.868,0,2.8h-.54V.682c0,.937,0,1.877,0,2.815h-.54V.67c0,.941,0,1.885,0,2.827h-.54V.658q0,1.419,0,2.839h-.539V.646c0,.949,0,1.9,0,2.851h-.539V.634q0,1.43,0,2.863h-.539V.622q0,1.437,0,2.875h-.539V.61q0,1.443,0,2.887h-.539V.6c0,.965,0,1.933,0,2.9h-.539V.586q0,1.455,0,2.911h-.539V.574q0,1.461,0,2.923h-.539V.562q0,1.467,0,2.935h-.539V.55c0,.982,0,1.965,0,2.947h-.539V.538c0,.986,0,1.973,0,2.959H231.8V.526c0,.99,0,1.981,0,2.971h-.539V.514c0,.994,0,1.989,0,2.983h-.539V.5c0,1,0,2,0,3h-.539V.49q0,1.5,0,3.007h-.539V.479q0,1.507,0,3.018h-.539V.467q0,1.513,0,3.03h-.539V.455q0,1.519,0,3.042h-.539V.443q0,1.525,0,3.054h-.539V.431q0,1.531,0,3.066h-.539V.419q0,1.537,0,3.078h-.539V.407q0,1.543,0,3.09h-.539V.4q0,1.549,0,3.1H225.3V.383q0,1.555,0,3.114h-.539V.371q0,1.562,0,3.126h-.539V.359c0,1.045,0,2.092,0,3.138h-.539V.347c0,1.049,0,2.1,0,3.15h-.539V.335c0,1.053,0,2.108,0,3.162h-.539V.323c0,1.057,0,2.116,0,3.174h-.538V.311q0,1.592,0,3.186H221.5V.3q0,1.6,0,3.2h-.539V.287q0,1.6,0,3.21h-.539V.275q0,1.61,0,3.222h-.539V.263q0,1.616,0,3.234h-.539V.251q0,1.622,0,3.246h-.539V.239c0,1.085,0,2.172,0,3.258h-.539V.227c0,1.089,0,2.18,0,3.27h-.539V.215c0,1.093,0,2.188,0,3.282h-.539V.2q0,1.646,0,3.294h-.539V.191q0,1.652,0,3.306h-.54V.179q0,1.658,0,3.318h-.539V.167q0,1.664,0,3.33H215V.156q0,1.668,0,3.341h-.539V.144q0,1.674,0,3.353h-.539V.132q0,1.68,0,3.365h-.539V.12q0,1.686,0,3.377h-.539V.108q0,1.694,0,3.389h-.539V.1q0,1.7,0,3.4h-.539V.084q0,1.7,0,3.413h-.539V.072q0,1.71,0,3.425h-.539V.06c0,1.145,0,2.291,0,3.437h-.538V.048c0,1.149,0,2.3,0,3.449h-.538V.036c0,1.152,0,2.307,0,3.461h-.538V.024c0,1.157,0,2.315,0,3.473H208.5V.012q0,1.742,0,3.485h-.538V0q0,1.748,0,3.5H0V16.058H207.951q0,1.749,0,3.5v-3.5h.538q0,1.742,0,3.485V16.058h.538c0,1.158,0,2.316,0,3.473V16.058h.538c0,1.153,0,2.308,0,3.461V16.058h.538c0,1.15,0,2.3,0,3.449V16.058h.538c0,1.146,0,2.292,0,3.437V16.058h.539q0,1.713,0,3.425V16.058h.539q0,1.707,0,3.413V16.058h.539q0,1.7,0,3.4v-3.4h.539q0,1.7,0,3.39v-3.39h.539q0,1.689,0,3.378V16.058h.539q0,1.683,0,3.366V16.058h.539q0,1.677,0,3.354V16.058H215q0,1.671,0,3.342V16.058h.539q0,1.665,0,3.33v-3.33h.539q0,1.659,0,3.318V16.058h.54q0,1.653,0,3.306V16.058h.539q0,1.647,0,3.294V16.058h.539c0,1.094,0,2.189,0,3.282V16.058h.539c0,1.09,0,2.181,0,3.27v-3.27h.539c0,1.086,0,2.173,0,3.258V16.058h.539q0,1.623,0,3.246V16.058h.539q0,1.617,0,3.234V16.058h.539q0,1.611,0,3.222V16.058h.539q0,1.605,0,3.21v-3.21h.539q0,1.6,0,3.2v-3.2h.539q0,1.593,0,3.186V16.058h.538c0,1.058,0,2.117,0,3.174V16.058h.539c0,1.054,0,2.109,0,3.162V16.058h.539c0,1.05,0,2.1,0,3.15v-3.15h.539c0,1.046,0,2.093,0,3.138V16.058h.539q0,1.563,0,3.126V16.058h.539q0,1.557,0,3.114V16.058h.539q0,1.551,0,3.1v-3.1h.539q0,1.545,0,3.09v-3.09h.539q0,1.539,0,3.078V16.058h.539q0,1.533,0,3.067V16.058H228q0,1.527,0,3.055V16.058h.539q0,1.521,0,3.043V16.058h.539q0,1.515,0,3.031V16.058h.539q0,1.509,0,3.019V16.058h.539q0,1.5,0,3.007V16.058h.539c0,1,0,2,0,3v-3h.539c0,.994,0,1.989,0,2.983V16.058h.539c0,.99,0,1.981,0,2.971V16.058h.539c0,.986,0,1.973,0,2.959V16.058h.539c0,.982,0,1.965,0,2.947V16.058h.539q0,1.467,0,2.935V16.058h.539q0,1.461,0,2.923V16.058h.539c0,.97,0,1.942,0,2.911V16.058h.539q0,1.449,0,2.9v-2.9h.539q0,1.443,0,2.887V16.058h.539c0,.958,0,1.918,0,2.875V16.058h.539c0,.954,0,1.91,0,2.863V16.058h.539q0,1.425,0,2.851V16.058h.539c0,.946,0,1.894,0,2.839V16.058h.54c0,.942,0,1.886,0,2.827V16.058h.54c0,.938,0,1.878,0,2.815V16.058h.54c0,.934,0,1.87,0,2.8v-2.8h.54c0,.93,0,1.862,0,2.791V16.058h.539c0,.926,0,1.854,0,2.779V16.058h.539c0,.922,0,1.846,0,2.767V16.058h.539c0,.918,0,1.838,0,2.755V16.058h.539q0,1.371,0,2.744V16.058h.539q0,1.365,0,2.732V16.058h.539q0,1.359,0,2.72v-2.72h.539q0,1.353,0,2.708V16.058h.539q0,1.349,0,2.7v-2.7h.539q0,1.341,0,2.684V16.058h.539q0,1.335,0,2.672V16.058h.54q0,1.329,0,2.66v-2.66h.54q0,1.323,0,2.648V16.058h.54q0,1.319,0,2.636V16.058h.54c0,.875,0,1.75,0,2.624V16.058h.54c0,.87,0,1.742,0,2.612V16.058h.54c0,.867,0,1.734,0,2.6v-2.6h.54c0,.862,0,1.726,0,2.588V16.058h.539c0,.859,0,1.718,0,2.576V16.058h.539c0,.855,0,1.71,0,2.564V16.058h.539q0,1.276,0,2.552V16.058h.539q0,1.271,0,2.54v-2.54h.539q0,1.264,0,2.528V16.058h.539q0,1.257,0,2.516V16.058h.539q0,1.253,0,2.5v-2.5h.54q0,1.246,0,2.493V16.058h.54q0,1.241,0,2.481V16.058h.54q0,1.235,0,2.469V16.058h.54q0,1.228,0,2.457V16.058h.54q0,1.223,0,2.445V16.058h.54c0,.811,0,1.622,0,2.433V16.058h.54c0,.807,0,1.614,0,2.421V16.058h.54c0,.8,0,1.607,0,2.409V16.058h.54c0,.8,0,1.6,0,2.4v-2.4h.539c0,.8,0,1.59,0,2.385V16.058h.539q0,1.187,0,2.373V16.058h.539q0,1.18,0,2.361V16.058h.539q0,1.175,0,2.349V16.058h.54q0,1.169,0,2.337V16.058h.54q0,1.162,0,2.325V16.058h.54q0,1.157,0,2.313V16.058h.54q0,1.151,0,2.3v-2.3h.54q0,1.145,0,2.289V16.058h.54q0,1.139,0,2.277V16.058h.54q0,1.133,0,2.265V16.058h.54q0,1.127,0,2.253V16.058h.54q0,1.12,0,2.241V16.058h.54q0,1.114,0,2.229V16.058h.54q0,1.108,0,2.217V16.058h.54q0,1.1,0,2.205V16.058h.54q0,1.1,0,2.193V16.058h.54q0,1.09,0,2.182V16.058h.54q0,1.084,0,2.17v-2.17h.54c0,.719,0,1.439,0,2.158V16.058h.54c0,.715,0,1.431,0,2.146V16.058h.54c0,.711,0,1.423,0,2.134V16.058h.54c0,.707,0,1.415,0,2.122V16.058h.54c0,.7,0,1.407,0,2.11v-2.11h.539q0,1.049,0,2.1v-2.1h.54q0,1.043,0,2.086V16.058h.54q0,1.036,0,2.074V16.058h.54q0,1.031,0,2.062V16.058h.54q0,1.024,0,2.05v-2.05h.54q0,1.018,0,2.038V16.058h.54q0,1.013,0,2.026V16.058h.54q0,1.006,0,2.014V16.058h.54q0,1,0,2v-2h.54q0,.995,0,1.99v-1.99h.54q0,.988,0,1.978V16.058h.54c0,.655,0,1.311,0,1.966V16.058h.54c0,.651,0,1.3,0,1.954V16.058h.54c0,.647,0,1.3,0,1.942V16.058h.54c0,.643,0,1.287,0,1.93v-1.93h.541c0,.639,0,1.279,0,1.918V16.058h.541c0,.635,0,1.272,0,1.906V16.058h.54c0,.631,0,1.264,0,1.894V16.058h.54q0,.941,0,1.882V16.058h.54c0,.623,0,1.248,0,1.87v-1.87h.54c0,.619,0,1.24,0,1.859V16.058h.54c0,.615,0,1.232,0,1.847V16.058h.54c0,.611,0,1.224,0,1.835V16.058h.54q0,.912,0,1.823V16.058h.54c0,.6,0,1.208,0,1.811V16.058h.54c0,.6,0,1.2,0,1.8v-1.8h.54c0,.595,0,1.192,0,1.787V16.058h.54c0,.591,0,1.184,0,1.775V16.058h.54c0,.588,0,1.176,0,1.763V16.058h.541c0,.584,0,1.168,0,1.751V16.058h.541c0,.579,0,1.16,0,1.739V16.058h.541c0,.576,0,1.152,0,1.727V16.058h.541c0,.571,0,1.144,0,1.715V16.058h.541c0,.567,0,1.136,0,1.7v-1.7h.54q0,.846,0,1.691V16.058h.54q0,.84,0,1.679V16.058h.54q0,.834,0,1.667V16.058h.54q0,.828,0,1.655V16.058h.54c0,.547,0,1.1,0,1.643V16.058h.54q0,.816,0,1.631V16.058h.54q0,.81,0,1.619V16.058h.54q0,.8,0,1.608V16.058h.54c0,.532,0,1.064,0,1.6v-1.6h.541c0,.528,0,1.056,0,1.584V16.058h.541c0,.524,0,1.048,0,1.572V16.058h.541c0,.52,0,1.04,0,1.56v-1.56h.541c0,.516,0,1.032,0,1.548V16.058h.541c0,.512,0,1.024,0,1.536V16.058h.541q0,.762,0,1.524V16.058h.541q0,.756,0,1.512V16.058h.54q0,.75,0,1.5v-1.5H299q0,.744,0,1.488V16.058h.54q0,.738,0,1.476V16.058h.54q0,.732,0,1.464V16.058h.54q0,.726,0,1.452V16.058h.54q0,.72,0,1.44v-1.44h.54q0,.714,0,1.428V16.058h.541q0,.708,0,1.416V16.058h.541c0,.468,0,.937,0,1.4v-1.4h.541c0,.464,0,.929,0,1.392V16.058h.541c0,.46,0,.921,0,1.38v-1.38h.541c0,.456,0,.913,0,1.368V16.058h41.748c0,.149,0,.3,0,.447v-.447h83.5c0,1.16,0,2.323.006,3.482V16.058h1.259c0,1.142,0,2.286.006,3.426V16.058h1.258c0,1.123,0,2.249.007,3.37v-3.37h1.258c0,1.1,0,2.212.006,3.315V16.058h1.259c0,1.086,0,2.174.006,3.259V16.058h1.259c0,1.067,0,2.137.006,3.2v-3.2h1.259c0,1.049,0,2.1.006,3.147V16.058h1.259c0,1.03,0,2.063.006,3.091V16.058h1.259c0,1.011,0,2.025.005,3.036V16.058h1.259c0,.993,0,1.988.006,2.98v-2.98h1.26c0,.974,0,1.951,0,2.924V16.058h1.259c0,.956,0,1.914.006,2.868V16.058h1.259c0,.937,0,1.877,0,2.813V16.058h1.26c0,.919,0,1.839,0,2.757V16.058h1.26c0,.9,0,1.8,0,2.7v-2.7h1.26c0,.881,0,1.765,0,2.645V16.058H449.9c0,.863,0,1.728,0,2.589V16.058h1.261c0,.844,0,1.69,0,2.534V16.058h1.26c0,.826,0,1.653,0,2.478V16.058h1.26c0,.807,0,1.616,0,2.422V16.058h1.26c0,.788,0,1.579,0,2.366V16.058h1.261c0,.77,0,1.542,0,2.31v-2.31h1.261c0,.751,0,1.5,0,2.255V16.058h1.26c0,.733,0,1.467,0,2.2v-2.2h1.261c0,.714,0,1.43,0,2.143V16.058h1.261c0,.7,0,1.393,0,2.087V16.058h1.261c0,.677,0,1.355,0,2.032V16.058h1.261c0,.658,0,1.318,0,1.976V16.058h1.261c0,.64,0,1.281,0,1.92v-1.92h1.261c0,.621,0,1.244,0,1.864V16.058h1.261c0,.6,0,1.207,0,1.808V16.058h1.262c0,.584,0,1.169,0,1.753V16.058h1.261c0,.565,0,1.132,0,1.7v-1.7H471.4c0,.546,0,1.095,0,1.641V16.058h1.262c0,.528,0,1.058,0,1.585V16.058h1.262c0,.509,0,1.02,0,1.529V16.058H475.2c0,.491,0,.983,0,1.474V16.058h1.262c0,.472,0,.946,0,1.418V16.058h1.263c0,.454,0,.909,0,1.362V16.058h1.262c0,.435,0,.872,0,1.306V16.058h1.262c0,.417,0,.834,0,1.251V16.058h1.262c0,.4,0,.8,0,1.2v-1.2h1.263c0,.379,0,.76,0,1.139V16.058h1.263c0,.361,0,.723,0,1.083V16.058h1.262c0,.342,0,.685,0,1.027V16.058h1.264c0,.324,0,.648,0,.972v-.972h1.262c0,.3,0,.611,0,.916v-.916h1.263c0,.286,0,.574,0,.86v-.86h1.263c0,.268,0,.537,0,.8v-.8h1.264c0,.249,0,.5,0,.748v-.748H492.9c0,.231,0,.462,0,.693v-.693h1.264c0,.212,0,.425,0,.637v-.637h1.264c0,.193,0,.388,0,.581v-.581H496.7c0,.175,0,.351,0,.525v-.525h1.264c0,.156,0,.313,0,.47v-.47h1.264c0,.138,0,.276,0,.414v-.414h1.264c0,.119,0,.239,0,.358v-.358h1.264v0h1.265v0h1.265v0h1.265v0h1.264v0h1.265v0h32.9c.006,1.136,0,2.278.013,3.411V16.058h1.252c0,1.1,0,2.2.012,3.3v-3.3h1.253c0,1.062,0,2.129.012,3.189V16.058h1.253c0,1.025,0,2.055.011,3.077V16.058h1.254c0,.988,0,1.98.011,2.966V16.058H547.3c0,.951,0,1.906.01,2.854V16.058h1.254c0,.913,0,1.832.011,2.743V16.058h1.254c.005.876,0,1.757.01,2.632V16.058H551.1c0,.839,0,1.683.009,2.52v-2.52h1.256c0,.8,0,1.609.009,2.409V16.058h1.256c0,.765,0,1.534.009,2.3v-2.3h1.256c0,.728,0,1.46.008,2.186V16.058h1.257c0,.691,0,1.385.008,2.075V16.058h1.256c0,.653,0,1.311.008,1.963V16.058h1.257c0,.616,0,1.236.007,1.852V16.058h1.258c0,.579,0,1.162.006,1.74v-1.74h1.259c0,.542,0,1.088.006,1.629V16.058h1.259c0,.5,0,1.013.006,1.518V16.058h1.259c0,.468,0,.939,0,1.406V16.058h1.26c0,.431,0,.865,0,1.3v-1.3h1.259c0,.394,0,.79,0,1.183V16.058h1.26c0,.357,0,.716,0,1.072V16.058h1.261c0,.319,0,.641,0,.961v-.961h1.261c0,.283,0,.567,0,.849v-.849h1.262c0,.245,0,.493,0,.738v-.738H572.6c0,.208,0,.418,0,.626v-.626h1.263c0,.171,0,.344,0,.515v-.515h1.262c0,.134,0,.27,0,.4v-.4H576.4c0,.1,0,.2,0,.292v-.292h1.264c0,.06,0,.121,0,.181v-.181h1.264v0h16.467c.011,1.162.008,2.336.025,3.492V16.058h1.239c.011,1.088.009,2.187.025,3.27v-3.27h1.24c.011,1.014.008,2.038.023,3.048V16.058h1.242c.01.94.007,1.89.021,2.826V16.058h1.244c.009.866.006,1.741.019,2.6v-2.6h1.246c.009.792.006,1.593.017,2.382V16.058h1.248c.008.718,0,1.444.016,2.16v-2.16h1.249c.007.644,0,1.3.014,1.938V16.058h1.251c.006.57,0,1.147.012,1.715V16.058h1.252c.006.5,0,1,.012,1.493V16.058h1.253c0,.422,0,.85.01,1.271V16.058h1.255c0,.348,0,.7.008,1.049V16.058h1.257c0,.275,0,.553.006.827v-.827h1.259c0,.2,0,.4,0,.605v-.605H613.1c0,.127,0,.256,0,.383v-.383h1.262c0,.053,0,.108,0,.161v-.161h8.873c.022,1.146.043,2.294.077,3.428V16.058h1.191c.02,1,.037,2,.067,2.987V16.058h1.2c.018.849.032,1.7.057,2.546V16.058h1.212c.016.7.026,1.408.047,2.1v-2.1h1.221c.013.554.02,1.112.037,1.663V16.058h1.24c.01.4.006.82.018,1.222V16.058h1.247c.007.257,0,.524.012.78v-.78h1.253c0,.112,0,.228,0,.339v-.339h5.1c.043,1.1.083,2.21.147,3.288V16.058H638.5c.035.808.061,1.625.108,2.418V16.058h1.17c.025.515.039,1.041.07,1.548V16.058h1.208c.012.224.017.456.031.678v-.678h3.863c.064.723.137,1.432.223,2.12v-2.12h1.118c.017.145.029.3.047.44v-.44h1.345a24.048,24.048,0,0,0,.634,2.875V16.058h.951c.453,1.454,1.061,2.352,1.732,2.352s1.279-.9,1.732-2.352h.951v2.875a24.048,24.048,0,0,0,.634-2.875h1.345v.44c.018-.144.03-.3.047-.44h1.118v2.12c.086-.688.159-1.4.223-2.12h3.863v.678c.014-.222.019-.454.031-.678h1.208v1.548c.031-.507.045-1.033.07-1.548h1.17v2.418c.047-.793.073-1.61.108-2.418h1.131v3.288c.064-1.078.1-2.185.147-3.288h5.1V16.4c0-.111,0-.227,0-.339h1.253v.78c.008-.256,0-.523.012-.78h1.247V17.28c.012-.4.008-.818.018-1.222h1.24v1.663c.017-.551.024-1.109.037-1.663h1.221v2.1c.021-.7.031-1.4.047-2.1h1.212V18.6c.025-.843.039-1.7.057-2.546h1.2v2.987c.03-.989.047-1.989.067-2.987h1.191v3.428c.034-1.134.055-2.282.077-3.428h8.873v.161c0-.053,0-.108,0-.161H688.9v.383c0-.127,0-.256,0-.383h1.261v.605c0-.2,0-.4,0-.605h1.259v.827c0-.274,0-.552.006-.827h1.257v1.049c0-.347,0-.7.008-1.049h1.255v1.271c.007-.421,0-.849.01-1.271h1.253v1.493c.008-.494.006-1,.012-1.493h1.252v1.715c.008-.568.006-1.145.012-1.715h1.251V18c.01-.642.007-1.294.014-1.938H699v2.16c.011-.716.008-1.442.016-2.16h1.248V18.44c.011-.789.008-1.59.017-2.382h1.246v2.6c.013-.863.01-1.738.019-2.6h1.244v2.826c.014-.936.011-1.886.021-2.826h1.242v3.048c.015-1.01.012-2.034.023-3.048h1.24v3.27c.016-1.083.014-2.182.025-3.27h1.239V19.55c.017-1.156.014-2.33.025-3.492h16.467v0h1.264v.181c0-.06,0-.121,0-.181H725.6v.292c0-.1,0-.2,0-.292h1.263v.4c0-.134,0-.27,0-.4h1.262v.515c0-.171,0-.344,0-.515H729.4v.626c0-.208,0-.418,0-.626h1.262V16.8c0-.245,0-.493,0-.738h1.262v.849c0-.282,0-.566,0-.849h1.261v.961c0-.32,0-.642,0-.961h1.261V17.13c0-.356,0-.715,0-1.072h1.26v1.183c0-.393,0-.789,0-1.183h1.259v1.3c0-.43,0-.864,0-1.3h1.26v1.406c0-.467,0-.938,0-1.406h1.259v1.518c0-.5,0-1.013.006-1.518h1.259v1.629c0-.541,0-1.087.006-1.629h1.259V17.8c0-.578,0-1.161.006-1.74h1.258V17.91c0-.616,0-1.236.007-1.852h1.257v1.963c0-.652,0-1.31.008-1.963h1.256v2.075c.006-.69,0-1.384.008-2.075H747.1v2.186c.006-.726,0-1.458.008-2.186h1.257v2.3c0-.763,0-1.532.008-2.3h1.256v2.409c.006-.8,0-1.607.009-2.409h1.256v2.52c0-.837,0-1.681.009-2.52h1.255V18.69c.007-.875,0-1.756.01-2.632h1.254V18.8c.007-.911.006-1.83.011-2.743h1.254v2.854c.007-.948.005-1.9.01-2.854h1.254v2.966c.008-.986.006-1.978.011-2.966h1.254v3.077c.007-1.022.006-2.052.011-3.077h1.253v3.189c.008-1.06.007-2.127.012-3.189h1.253v3.3c.008-1.1.007-2.2.012-3.3h1.252v3.411c.009-1.133.007-2.275.013-3.411h32.9v0h1.265v0h1.264v0h1.265v0h1.265v0h1.265v0h1.264v.358c0-.119,0-.239,0-.358h1.264v.414c0-.138,0-.276,0-.414h1.264v.47c0-.157,0-.314,0-.47H805.3v.525c0-.174,0-.35,0-.525h1.263v.581c0-.193,0-.388,0-.581h1.264V16.7c0-.212,0-.425,0-.637H809.1v.693c0-.231,0-.462,0-.693h1.263v.748c0-.249,0-.5,0-.748h1.264v.8c0-.267,0-.536,0-.8h1.263v.86c0-.286,0-.574,0-.86h1.263v.916c0-.3,0-.611,0-.916h1.262v.972c0-.324,0-.648,0-.972h1.264v1.027c0-.342,0-.685,0-1.027h1.262v1.083c0-.36,0-.722,0-1.083h1.263V17.2c0-.379,0-.76,0-1.139h1.263v1.2c0-.4,0-.8,0-1.2h1.262v1.251c0-.417,0-.834,0-1.251h1.262v1.306c0-.434,0-.871,0-1.306h1.262V17.42c0-.453,0-.908,0-1.362h1.263v1.418c0-.472,0-.946,0-1.418H826.8v1.474c0-.491,0-.983,0-1.474h1.262v1.529c0-.509,0-1.02,0-1.529h1.262v1.585c0-.527,0-1.057,0-1.585H830.6V17.7c0-.546,0-1.1,0-1.641h1.261v1.7c0-.565,0-1.132,0-1.7h1.261v1.753c0-.584,0-1.169,0-1.753h1.262v1.808c0-.6,0-1.206,0-1.808h1.261v1.864c0-.62,0-1.243,0-1.864h1.261v1.92c0-.639,0-1.28,0-1.92h1.261v1.976c0-.658,0-1.318,0-1.976h1.261V18.09c0-.677,0-1.355,0-2.032h1.261v2.087c0-.694,0-1.392,0-2.087h1.261V18.2c0-.713,0-1.429,0-2.143h1.261v2.2c0-.732,0-1.466,0-2.2h1.26v2.255c0-.751,0-1.5,0-2.255h1.261v2.31c0-.768,0-1.54,0-2.31h1.261v2.366c0-.787,0-1.578,0-2.366h1.26V18.48c0-.806,0-1.615,0-2.422h1.26v2.478c0-.825,0-1.652,0-2.478h1.26v2.534c0-.844,0-1.69,0-2.534H852.1v2.589c0-.861,0-1.726,0-2.589h1.259V18.7c0-.88,0-1.764,0-2.645h1.26v2.7c0-.9,0-1.8,0-2.7h1.26v2.757c0-.918,0-1.838,0-2.757h1.26v2.813c0-.936,0-1.876,0-2.813h1.259v2.868c0-.954,0-1.912.006-2.868h1.259v2.924c0-.973,0-1.95.005-2.924h1.26v2.98c0-.992,0-1.987.006-2.98h1.259v3.036c0-1.011,0-2.025,0-3.036h1.259v3.091c0-1.028,0-2.061.006-3.091h1.259V19.2c0-1.047,0-2.1.006-3.147h1.259v3.2c0-1.066,0-2.136.006-3.2h1.259v3.259c0-1.085,0-2.173.006-3.259h1.259v3.315c0-1.1,0-2.211.006-3.315H869.8v3.37c0-1.121,0-2.247.007-3.37h1.258v3.426c0-1.14,0-2.284.006-3.426h1.259V19.54c0-1.159,0-2.322.006-3.482h83.495v.447c0-.149,0-.3,0-.447h41.748v1.368c0-.455,0-.912,0-1.368h.541v1.38c0-.459,0-.92,0-1.38h.541V17.45c0-.463,0-.928,0-1.392h.541v1.4c0-.467,0-.936,0-1.4h.541v1.416q0-.708,0-1.416h.541v1.428q0-.714,0-1.428h.54V17.5q0-.72,0-1.44h.54V17.51q0-.726,0-1.452h.54v1.464q0-.732,0-1.464h.54v1.476q0-.738,0-1.476h.54v1.488q0-.744,0-1.488h.54v1.5q0-.75,0-1.5h.54V17.57q0-.756,0-1.512h.541v1.524q0-.762,0-1.524h.541v1.536c0-.512,0-1.024,0-1.536h.541v1.548c0-.516,0-1.032,0-1.548h.541v1.56c0-.52,0-1.04,0-1.56h.541V17.63c0-.524,0-1.048,0-1.572h.541v1.584c0-.528,0-1.056,0-1.584h.541v1.6c0-.532,0-1.064,0-1.6h.54v1.608q0-.8,0-1.608h.54v1.619q0-.808,0-1.619h.54v1.631q0-.814,0-1.631h.54V17.7c0-.547,0-1.1,0-1.643h.54v1.655q0-.827,0-1.655h.54v1.667q0-.832,0-1.667h.54v1.679q0-.838,0-1.679h.54v1.691q0-.844,0-1.691h.54v1.7c0-.567,0-1.136,0-1.7h.541v1.715c0-.571,0-1.144,0-1.715h.541v1.727c0-.575,0-1.151,0-1.727h.541V17.8c0-.579,0-1.16,0-1.739h.541v1.751c0-.583,0-1.167,0-1.751h.541v1.763c0-.587,0-1.175,0-1.763h.54v1.775c0-.591,0-1.184,0-1.775h.54v1.787c0-.595,0-1.192,0-1.787h.54v1.8c0-.6,0-1.2,0-1.8h.54v1.811c0-.6,0-1.208,0-1.811h.54v1.823q0-.91,0-1.823h.54v1.835c0-.611,0-1.224,0-1.835h.54v1.847c0-.615,0-1.232,0-1.847h.54v1.859c0-.619,0-1.24,0-1.859h.54v1.87c0-.622,0-1.247,0-1.87h.54V17.94q0-.941,0-1.882h.54v1.894c0-.63,0-1.263,0-1.894h.54v1.906c0-.634,0-1.271,0-1.906h.541v1.918c0-.639,0-1.279,0-1.918h.541v1.93c0-.643,0-1.287,0-1.93h.54V18c0-.646,0-1.3,0-1.942h.54v1.954c0-.651,0-1.3,0-1.954h.54v1.966c0-.655,0-1.311,0-1.966h.54v1.978q0-.989,0-1.978h.54v1.99q0-.994,0-1.99h.54v2q0-1,0-2h.54v2.014q0-1.006,0-2.014h.54v2.026q0-1.012,0-2.026h.54V18.1q0-1.018,0-2.038h.54v2.05q0-1.024,0-2.05h.54V18.12q0-1.03,0-2.062h.54v2.074q0-1.037,0-2.074h.54v2.086q0-1.042,0-2.086h.54v2.1q0-1.048,0-2.1h.539v2.11c0-.7,0-1.407,0-2.11h.54V18.18c0-.707,0-1.415,0-2.122h.54v2.134c0-.711,0-1.423,0-2.134h.54V18.2c0-.715,0-1.431,0-2.146h.54v2.158c0-.719,0-1.439,0-2.158h.54v2.17q0-1.085,0-2.17h.54V18.24q0-1.09,0-2.182h.54v2.193q0-1.1,0-2.193h.54v2.205q0-1.1,0-2.205h.54v2.217q0-1.107,0-2.217h.54v2.229q0-1.113,0-2.229h.54V18.3q0-1.119,0-2.241h.54v2.253q0-1.125,0-2.253h.54v2.265q0-1.131,0-2.265h.54v2.277q0-1.137,0-2.277h.54v2.289q0-1.143,0-2.289h.54v2.3q0-1.149,0-2.3h.54v2.313q0-1.155,0-2.313h.54v2.325q0-1.161,0-2.325h.54V18.4q0-1.167,0-2.337h.54v2.349q0-1.173,0-2.349h.539v2.361q0-1.179,0-2.361h.539v2.373q0-1.185,0-2.373h.539v2.385c0-.8,0-1.59,0-2.385h.539v2.4c0-.8,0-1.6,0-2.4h.54v2.409c0-.8,0-1.606,0-2.409h.54v2.421c0-.807,0-1.614,0-2.421h.54v2.433c0-.811,0-1.622,0-2.433h.54V18.5q0-1.223,0-2.445h.54v2.457q0-1.228,0-2.457h.54v2.469q0-1.235,0-2.469h.54v2.481q0-1.241,0-2.481h.54v2.493q0-1.247,0-2.493h.54v2.5q0-1.251,0-2.5h.539v2.516q0-1.257,0-2.516h.539v2.528q0-1.263,0-2.528h.539V18.6q0-1.269,0-2.54h.539V18.61q0-1.275,0-2.552h.539v2.564q0-1.281,0-2.564h.539v2.576c0-.858,0-1.717,0-2.576h.539v2.588c0-.862,0-1.726,0-2.588h.54v2.6c0-.866,0-1.733,0-2.6h.54V18.67c0-.87,0-1.742,0-2.612h.54v2.624c0-.874,0-1.749,0-2.624h.54v2.636q0-1.317,0-2.636h.54v2.648q0-1.323,0-2.648h.54v2.66q0-1.329,0-2.66h.54V18.73q0-1.335,0-2.672h.539v2.684q0-1.341,0-2.684h.539v2.7q0-1.347,0-2.7h.539v2.708q0-1.353,0-2.708h.539v2.72q0-1.359,0-2.72h.539V18.79q0-1.365,0-2.732h.539V18.8q0-1.371,0-2.744h.539v2.755c0-.917,0-1.837,0-2.755h.539v2.767c0-.921,0-1.845,0-2.767h.539v2.779c0-.925,0-1.853,0-2.779h.539v2.791c0-.929,0-1.861,0-2.791h.54v2.8c0-.933,0-1.869,0-2.8h.54v2.815c0-.937,0-1.877,0-2.815h.54v2.827c0-.941,0-1.885,0-2.827h.54V18.9c0-.945,0-1.893,0-2.839h.539v2.851q0-1.425,0-2.851h.539v2.863c0-.953,0-1.909,0-2.863h.539v2.875c0-.957,0-1.917,0-2.875h.539v2.887q0-1.443,0-2.887h.539v2.9q0-1.449,0-2.9h.539v2.911c0-.969,0-1.941,0-2.911h.539v2.923q0-1.461,0-2.923h.539v2.935q0-1.467,0-2.935h.539v2.947c0-.982,0-1.965,0-2.947h.539v2.959c0-.986,0-1.973,0-2.959h.539v2.971c0-.99,0-1.981,0-2.971h.539v2.983c0-.994,0-1.989,0-2.983h.539v3c0-1,0-2,0-3h.539v3.007q0-1.5,0-3.007h.539v3.019q0-1.509,0-3.019h.539v3.031q0-1.515,0-3.031h.539V19.1q0-1.521,0-3.043h.539v3.055q0-1.527,0-3.055h.539v3.067q0-1.533,0-3.067h.539v3.078q0-1.537,0-3.078h.539v3.09q0-1.543,0-3.09h.539v3.1q0-1.55,0-3.1h.539v3.114q0-1.555,0-3.114h.539v3.126q0-1.561,0-3.126h.539V19.2c0-1.045,0-2.092,0-3.138h.539v3.15c0-1.049,0-2.1,0-3.15h.539V19.22c0-1.053,0-2.108,0-3.162h.539v3.174c0-1.057,0-2.116,0-3.174h.538v3.186q0-1.591,0-3.186h.539v3.2q0-1.6,0-3.2h.539v3.21q0-1.6,0-3.21h.539V19.28q0-1.61,0-3.222h.539v3.234q0-1.616,0-3.234h.539V19.3q0-1.622,0-3.246h.539v3.258c0-1.085,0-2.172,0-3.258h.539v3.27c0-1.089,0-2.18,0-3.27h.539V19.34c0-1.093,0-2.188,0-3.282h.539v3.294q0-1.646,0-3.294h.539v3.306q0-1.651,0-3.306h.54v3.318q0-1.658,0-3.318h.539v3.33q0-1.664,0-3.33H1087V19.4q0-1.669,0-3.342h.539v3.354q0-1.677,0-3.354h.539v3.366q0-1.683,0-3.366h.539v3.378q0-1.687,0-3.378h.539v3.39q0-1.7,0-3.39h.539v3.4q0-1.7,0-3.4h.539v3.413q0-1.706,0-3.413h.539v3.425q0-1.712,0-3.425h.539V19.5c0-1.145,0-2.291,0-3.437h.538v3.449c0-1.149,0-2.3,0-3.449h.538v3.461c0-1.153,0-2.308,0-3.461h.538v3.473c0-1.157,0-2.315,0-3.473h.538v3.485q0-1.741,0-3.485h.538v3.5q0-1.747,0-3.5H1302Z"/>
  </g>
</svg>
